# xmcd
#
# Track frame offsets:
# 150
# 15123
# 29766
# 42984
# 58176
# 70151
# 83135
# 99020
# 114158
# 126641
# 143175
# 156414
# 171432
# 186805
# 200469
# 214437
# 232544
# 247606
# 262539
# 276589
# 288774
# 302579
# 315560
#
# Disc length: 4411 seconds
#
#
# Revision: 0
# Processed by: cddbd v1.5.2PL0 Copyright (c) Steve Scherf et al.
# Submitted via: FreeRIP 2.945 
#
DISCID=3a113917
DTITLE=Henrique e Ruan - Henrique e Ruan - Um love só
DYEAR=2015
DGENRE=Country
TTITLE0=Um love só
TTITLE1=Oceano
TTITLE2=Vai morrer de me ligar
TTITLE3=Let's go to night
TTITLE4=Taca cachaça
TTITLE5=GPS
TTITLE6=Filosofia
TTITLE7=1 e 15 da manhã
TTITLE8=Então dance
TTITLE9=Zoar e beber
TTITLE10=Vamos pra lá beber
TTITLE11=Primeiro beijo
TTITLE12=Caixa postal
TTITLE13=Por isso
TTITLE14=Don ruan
TTITLE15=Pout pourri: Malícia de mulher/Hoje eu sei
TTITLE16=Me leva em casa
TTITLE17=Não posso esquecer
TTITLE18=Fim de noite
TTITLE19=Badalar
TTITLE20=Diversão
TTITLE21=Chora carolina
TTITLE22=Amanhã vou lá hoje
EXTD=
EXTT0=
EXTT1=
EXTT2=
EXTT3=
EXTT4=
EXTT5=
EXTT6=
EXTT7=
EXTT8=
EXTT9=
EXTT10=
EXTT11=
EXTT12=
EXTT13=
EXTT14=
EXTT15=
EXTT16=
EXTT17=
EXTT18=
EXTT19=
EXTT20=
EXTT21=
EXTT22=
PLAYORDER=
